<svg xmlns="http://www.w3.org/2000/svg">
  <symbol id="icon-youtube" viewBox="0 0 55 56">
	<path fill-rule="evenodd" d="M17.113 6.667c6.478-1.062 14.296-1.062 20.775 0 5.886.965 10.447 5.747 11.32 10.898 1.056 6.235 1.056 13.78 0 20.016-.873 5.15-5.434 9.933-11.32 10.898-6.48 1.062-14.297 1.062-20.775 0-5.887-.965-10.448-5.747-11.32-10.898-1.057-6.235-1.057-13.78 0-20.016.872-5.15 5.433-9.933 11.32-10.898ZM38.588.937c-6.944-1.139-15.234-1.139-22.178 0C8.875 2.173 2.251 8.396.886 16.451c-1.181 6.971-1.181 15.273 0 22.243C2.25 46.75 8.875 52.974 16.41 54.21c6.944 1.139 15.234 1.139 22.178 0 7.537-1.236 14.16-7.459 15.525-15.515 1.181-6.97 1.181-15.272 0-22.243C52.75 8.396 46.126 2.173 38.59.937ZM23.887 13.591c-.768-.592-1.754-.648-2.567-.144-.813.504-1.32 1.484-1.32 2.551v23.15c0 1.067.508 2.048 1.32 2.551.813.504 1.8.448 2.567-.143l15-11.575c.695-.537 1.113-1.44 1.113-2.408s-.418-1.871-1.113-2.408l-15-11.574Zm9.106 13.982L25 33.741V21.405l7.993 6.168Z" clip-rule="evenodd"/>
  </symbol>
</svg>
