<svg xmlns="http://www.w3.org/2000/svg">
  <symbol id="icon-youtube" viewBox="0 0 55 56">
	<path fill-rule="evenodd" d="M17.113 6.667c6.478-1.062 14.296-1.062 20.775 0 5.886.965 10.447 5.747 11.32 10.898 1.056 6.235 1.056 13.78 0 20.016-.873 5.15-5.434 9.933-11.32 10.898-6.48 1.062-14.297 1.062-20.775 0-5.887-.965-10.448-5.747-11.32-10.898-1.057-6.235-1.057-13.78 0-20.016.872-5.15 5.433-9.933 11.32-10.898ZM38.588.937c-6.944-1.139-15.234-1.139-22.178 0C8.875 2.173 2.251 8.396.886 16.451c-1.181 6.971-1.181 15.273 0 22.243C2.25 46.75 8.875 52.974 16.41 54.21c6.944 1.139 15.234 1.139 22.178 0 7.537-1.236 14.16-7.459 15.525-15.515 1.181-6.97 1.181-15.272 0-22.243C52.75 8.396 46.126 2.173 38.59.937ZM23.887 13.591c-.768-.592-1.754-.648-2.567-.144-.813.504-1.32 1.484-1.32 2.551v23.15c0 1.067.508 2.048 1.32 2.551.813.504 1.8.448 2.567-.143l15-11.575c.695-.537 1.113-1.44 1.113-2.408s-.418-1.871-1.113-2.408l-15-11.574Zm9.106 13.982L25 33.741V21.405l7.993 6.168Z" clip-rule="evenodd"/>
  </symbol>
  <symbol id="icon-linkedin" viewBox="0 0 55 56">
  <path fill-rule="evenodd" d="M11 0C4.925 0 0 4.923 0 10.996v32.988C0 50.057 4.925 54.98 11 54.98h33c6.075 0 11-4.923 11-10.996V10.996C55 4.923 50.075 0 44 0H11ZM5.5 10.996A5.499 5.499 0 0 1 11 5.498h33c3.038 0 5.5 2.462 5.5 5.498v32.988a5.499 5.499 0 0 1-5.5 5.498H11a5.499 5.499 0 0 1-5.5-5.498V10.996Zm13.75 13.745a2.75 2.75 0 0 0-5.5 0v16.494a2.75 2.75 0 0 0 5.5 0V24.741Zm1.375-9.621a4.124 4.124 0 0 1-4.125 4.123 4.124 4.124 0 1 1 4.125-4.123Zm6.875 6.872c.934 0 1.759.465 2.256 1.176a9.656 9.656 0 0 1 4.619-1.176c5.938 0 9.625 5.294 9.625 9.818V41.234a2.75 2.75 0 0 1-5.5.001V31.81c0-2.112-1.813-4.32-4.125-4.32-1.441 0-3.032.783-4.125 2.648V41.235a2.75 2.75 0 0 1-5.5 0V24.743a2.751 2.751 0 0 1 2.75-2.751Z" clip-rule="evenodd"/>
  </symbol>
    <symbol id="icon-instagram" viewBox="0 0 55 56"> 
    <path fill-rule="evenodd" d="M16.142.337C11.665.54 7.785 1.633 4.652 4.752 1.508 7.887.427 11.782.224 16.21c-.126 2.764-.862 23.646 1.273 29.122 1.439 3.695 4.274 6.535 8.003 7.979 1.74.676 3.727 1.134 6.642 1.268 24.367 1.102 33.4.502 37.209-9.247.675-1.735 1.14-3.72 1.27-6.625 1.113-24.421-.181-29.715-4.428-33.955-3.369-3.359-7.33-5.645-34.051-4.415Zm.224 49.33c-2.668-.12-4.116-.564-5.082-.938-2.43-.944-4.255-2.76-5.193-5.175-1.626-4.162-1.086-23.925-.941-27.123.142-3.132.777-5.995 2.988-8.205 2.736-2.729 6.271-4.066 30.343-2.98 3.141.142 6.012.775 8.228 2.98 2.737 2.729 4.094 6.29 2.988 30.26-.12 2.66-.566 4.104-.94 5.068-2.477 6.344-8.174 7.224-32.391 6.114Zm22.38-36.775a3.28 3.28 0 0 0 3.284 3.275 3.283 3.283 0 0 0 3.287-3.275 3.282 3.282 0 0 0-3.287-3.274 3.28 3.28 0 0 0-3.283 3.274ZM13.373 27.457c0 7.738 6.291 14.012 14.052 14.012 7.76 0 14.05-6.274 14.05-14.012s-6.29-14.008-14.05-14.008c-7.76 0-14.052 6.27-14.052 14.008Zm4.931 0c0-5.02 4.083-9.094 9.12-9.094 5.038 0 9.12 4.073 9.12 9.094 0 5.023-4.082 9.098-9.12 9.098-5.037 0-9.12-4.075-9.12-9.098Z" clip-rule="evenodd"/>
    </symbol>
    <symbol id="icon-facebook" viewBox="0 0 55 56"><path fill-rule="evenodd" d="M0 10.996C0 4.923 4.925 0 11 0h33c6.075 0 11 4.923 11 10.996v32.988c0 6.073-4.925 10.996-11 10.996H11c-6.075 0-11-4.923-11-10.996V10.996Zm11-5.498a5.499 5.499 0 0 0-5.5 5.498v32.988a5.499 5.499 0 0 0 5.5 5.498h16.5V30.239h-2.75a2.75 2.75 0 1 1 0-5.498h2.75v-4.123c0-5.314 4.31-9.622 9.625-9.622h1.65a2.75 2.75 0 1 1 0 5.498h-1.65A4.124 4.124 0 0 0 33 20.617v4.124h5.775a2.75 2.75 0 1 1 0 5.498H33v19.243h11c3.038 0 5.5-2.462 5.5-5.498V10.996A5.499 5.499 0 0 0 44 5.498H11Z" clip-rule="evenodd"/></symbol>
</svg>
